<?xml version="1.0" standalone="no"?>
<!DOCTYPE svg PUBLIC "-//W3C//DTD SVG 1.1//EN" "http://www.w3.org/Graphics/SVG/1.1/DTD/svg11.dtd" >
<svg>
<metadata>
Created by FontForge 20090914 at Fri Feb 24 03:30:34 2012
 By root
Generated by Fontographer 4.0.4
</metadata>
<defs>
<font id="LCDBold" horiz-adv-x="520" >
  <font-face 
    font-family="LCD"
    font-weight="700"
    font-stretch="normal"
    units-per-em="1000"
    panose-1="0 0 7 0 0 0 0 0 0 0"
    ascent="800"
    descent="-200"
    x-height="800"
    cap-height="800"
    bbox="-26 -51 897 851"
    underline-thickness="20"
    underline-position="-123"
    unicode-range="U+0020-U+2010"
  />
<missing-glyph horiz-adv-x="500" 
d="M63 0v800h375v-800h-375zM125 63h250v675h-250v-675z" />
    <glyph glyph-name=".notdef" horiz-adv-x="500" 
d="M63 0v800h375v-800h-375zM125 63h250v675h-250v-675z" />
    <glyph glyph-name=".null" horiz-adv-x="0" 
 />
    <glyph glyph-name="nonmarkingreturn" horiz-adv-x="300" 
 />
    <glyph glyph-name="space" unicode=" " horiz-adv-x="300" 
 />
    <glyph glyph-name="exclam" unicode="!" horiz-adv-x="163" 
d="M141 459l-58 -52l-45 52l41 290l59 51l44 -51zM101 169l-59 -51l-44 51l24 172l58 52l45 -52zM84 51l-59 -51l-44 51l59 52z" />
    <glyph glyph-name="quotedbl" unicode="&#x22;" horiz-adv-x="322" 
d="M131 605l-54 -47l-40 47l13 96l54 47l40 -47zM272 605l-54 -47l-40 47l13 96l54 47l41 -47z" />
    <glyph glyph-name="dollar" unicode="$" horiz-adv-x="522" 
d="M528 661l-59 -52l-44 52l4 29l59 51l44 -51zM482 749l-59 -52h-62l-50 58l-66 -58h-62l-44 52l59 51h239zM321 459l-59 -52l-44 52l32 231l59 51l44 -51zM433 400l-59 -52h-62l-44 52l59 51h61zM142 459l-58 -52l-45 52l33 231l59 51l44 -51zM451 110l-59 -51l-44 51
l32 231l59 52l44 -52zM253 400l-58 -52h-62l-44 52l59 51h61zM272 110l-59 -51l-44 51l32 231l59 52l44 -52zM384 51l-59 -51h-240l-44 51l59 52h61l50 -58l67 58h61zM92 110l-58 -51l-45 51l4 29l59 52l44 -52z" />
    <glyph glyph-name="quotesingle" unicode="'" horiz-adv-x="163" 
d="M126 601l-59 -52l-44 52l14 99l59 51l44 -51z" />
    <glyph glyph-name="parenleft" unicode="(" horiz-adv-x="261" 
d="M280 749l-59 -52h-39l-44 52l59 51h38zM141 459l-61 -54h-49l40 285l58 51l45 -51zM92 110l-59 -51l-44 51l40 285h49l47 -54zM182 51l-59 -51h-39l-44 51l59 52h39z" />
    <glyph glyph-name="parenright" unicode=")" horiz-adv-x="261" 
d="M221 749l-59 -52h-39l-44 52l59 51h39zM271 690l-40 -285h-49l-46 54l32 231l59 51zM190 110l-59 -51l-44 51l32 231l62 54h49zM123 51l-59 -51h-39l-44 51l59 52h39z" />
    <glyph glyph-name="asterisk" unicode="*" horiz-adv-x="247" 
d="M221 428l-26 -23h-66l9 66l36 23h56zM212 363l-8 -56h-56l-30 23l10 66h66zM128 471l-9 -66h-66l-19 23l9 66h56zM118 395l-9 -66l-36 -22h-56l8 56l27 32h66z" />
    <glyph glyph-name="plus" unicode="+" horiz-adv-x="424" 
d="M272 459l-59 -52l-44 52l10 76l59 52l44 -52zM394 400l-59 -52h-71l-45 52l59 51h72zM204 400l-58 -52h-72l-44 52l59 51h71zM244 265l-58 -52l-45 52l11 76l59 52l44 -52z" />
    <glyph glyph-name="comma" unicode="," horiz-adv-x="163" 
d="M133 53l-117 -103l21 154l59 52l44 -52z" />
    <glyph glyph-name="hyphen" unicode="&#x2010;" horiz-adv-x="404" 
d="M374 400l-59 -52h-241l-44 52l59 51h240z" />
    <glyph glyph-name="period" unicode="." horiz-adv-x="163" 
d="M129 53l-58 -52l-45 52l8 51l58 52l45 -52z" />
    <glyph glyph-name="slash" unicode="/" horiz-adv-x="501" 
d="M515 711l-205 -306h-53l16 114l189 281h66zM229 281l-189 -281h-66l12 89l206 306h53z" />
    <glyph glyph-name="zero" unicode="0" horiz-adv-x="525" 
d="M144 459l-59 -52l-44 52l32 231l59 51l44 -51zM95 110l-59 -51l-44 51l32 231l59 52l44 -52zM385 51l-59 -51h-239l-45 51l59 52h240zM452 110l-59 -51l-44 51l32 231l59 52l44 -52zM501 459l-59 -52l-44 52l32 231l59 51l44 -51zM483 749l-59 -52h-239l-45 52l59 51h240
z" />
    <glyph glyph-name="one" unicode="1" horiz-adv-x="525" 
d="M376 459l-58 -52l-45 52l41 290l59 51l44 -51zM277 595l-56 -49l-37 43l7 52l106 93zM319 51l-59 -51l-45 45l42 296l58 52l45 -52z" />
    <glyph glyph-name="two" unicode="2" horiz-adv-x="525" 
d="M172 661l-59 -52l-44 52l4 29l59 51l44 -51zM483 749l-59 -52h-239l-45 52l59 51h240zM501 459l-59 -52l-44 52l32 231l59 51l44 -51zM435 400l-59 -52h-240l-45 52l59 51h241zM95 110l-118 -103l47 336l59 52l44 -52zM430 0h-446l117 103h241z" />
    <glyph glyph-name="three" unicode="3" horiz-adv-x="525" 
d="M486 459l-59 -52l-44 52l33 231l58 51l45 -51zM468 749l-59 -52h-269l-44 52l59 51h269zM419 400l-59 -52h-211l-44 52l58 51h212zM437 110l-59 -51l-44 51l33 231l58 52l45 -52zM370 51l-59 -51h-268l-45 51l59 52h269z" />
    <glyph glyph-name="four" unicode="4" horiz-adv-x="525" 
d="M501 459l-59 -52l-44 52l41 290l58 51l45 -51zM144 459l-59 -52l-44 52l34 241l58 51l44 -51zM434 400l-59 -52h-241l-44 52l59 51h241zM444 51l-59 -51l-44 51l40 290l59 52l44 -52z" />
    <glyph glyph-name="five" unicode="5" horiz-adv-x="525" 
d="M542 800l-117 -103h-241l-89 103h447zM144 459l-62 -54h-49l54 388l89 -105zM453 110l-59 -51l-44 51l32 231l59 52l44 -52zM434 400l-58 -52h-241l-44 52l58 51h241zM384 51l-59 -51h-239l-44 51l58 52h240zM94 110l-59 -51l-44 51l4 29l59 52l44 -52z" />
    <glyph glyph-name="six" unicode="6" horiz-adv-x="525" 
d="M483 749l-59 -52h-239l-45 52l59 51h240zM144 459l-62 -54h-49l40 285l59 51l44 -51zM95 110l-59 -51l-44 51l40 285h49l46 -54zM385 51l-59 -51h-239l-45 51l59 52h240zM452 110l-59 -51l-44 51l32 231l59 52l44 -52zM434 400l-59 -52h-241l-44 52l59 51h241z" />
    <glyph glyph-name="seven" unicode="7" horiz-adv-x="525" 
d="M538 748l-59 -51h-350l-44 52l59 51h350zM450 508l-74 -103h-53l13 94l129 187h10zM297 291l-191 -291h-66l13 89l205 306h53z" />
    <glyph glyph-name="eight" unicode="8" horiz-adv-x="525" 
d="M144 459l-59 -52l-44 52l32 231l59 51l44 -51zM95 110l-59 -51l-44 51l32 231l59 52l44 -52zM385 51l-59 -51h-239l-45 51l59 52h240zM452 110l-59 -51l-44 51l32 231l59 52l44 -52zM501 459l-59 -52l-44 52l32 231l59 51l44 -51zM483 749l-59 -52h-239l-45 52l59 51h240
zM434 400l-59 -52h-241l-44 52l59 51h241z" />
    <glyph glyph-name="nine" unicode="9" horiz-adv-x="525" 
d="M385 51l-59 -51h-239l-45 51l59 52h240zM452 110l-59 -51l-44 51l32 231l62 54h49zM533 690l-40 -285h-49l-46 54l32 231l59 51zM483 749l-59 -52h-239l-45 52l59 51h240zM144 459l-59 -52l-44 52l32 231l59 51l44 -51zM435 400l-59 -51h-240l-45 51l59 52h241z" />
    <glyph glyph-name="colon" unicode=":" horiz-adv-x="163" 
d="M146 290l-59 -52l-44 52l7 51l59 52l44 -52zM113 51l-59 -51l-44 51l7 52l59 51l44 -51z" />
    <glyph glyph-name="semicolon" unicode=";" horiz-adv-x="163" 
d="M150 290l-59 -52l-44 52l7 51l59 52l44 -52zM116 53l-117 -103l22 154l58 52l45 -52z" />
    <glyph glyph-name="less" unicode="&#x3c;" horiz-adv-x="192" 
d="M183 548l-90 -143h-62l13 94l152 217h10zM117 84h-10l-91 217l13 94h63l49 -143z" />
    <glyph glyph-name="equal" unicode="=" horiz-adv-x="404" 
d="M398 395l-59 -51h-241l-44 51l59 52h241zM349 51l-58 -51h-241l-44 51l59 52h240z" />
    <glyph glyph-name="greater" unicode="&#x3e;" horiz-adv-x="192" 
d="M163 405h-63l-49 143l23 168h10l92 -217zM148 301l-152 -217h-10l23 168l89 143h63z" />
    <glyph glyph-name="question" unicode="?" horiz-adv-x="461" 
d="M417 754l-64 -57h-230l-44 52l59 51h239zM440 459l-59 -52l-53 62l31 221l65 56l48 -56zM372 400l-58 -52h-62l-44 52l70 62h42zM220 169l-59 -51l-44 51l24 172l59 52l44 -52zM203 51l-59 -51l-44 51l59 52z" />
    <glyph glyph-name="A" unicode="A" horiz-adv-x="524" 
d="M84 51l-59 -51l-44 51l48 344h50l46 -54zM142 459l-61 -54h-50l39 283l61 53l44 -51zM483 748l-59 -51h-239l-45 52l59 51h239zM495 405h-51l-46 54l32 231l59 51l45 -52zM493 395l-48 -344l-59 -51l-44 51l41 290l61 54h49zM434 400l-59 -52h-241l-44 52l59 51h241z" />
    <glyph glyph-name="B" unicode="B" horiz-adv-x="522" 
d="M92 110l-117 -103l54 388h50l46 -54zM141 459l-61 -54h-49l54 388l89 -103zM482 748l-59 -51h-241l-88 103h343zM500 459l-59 -52l-44 52l32 231l59 51l44 -51zM451 110l-59 -51l-44 51l32 231l59 52l44 -52zM384 51l-59 -51h-344l118 103h240zM433 400l-59 -52h-241
l-44 52l59 51h240z" />
    <glyph glyph-name="C" unicode="C" 
d="M527 661l-59 -52l-44 52l4 29l59 51l44 -51zM480 749l-58 -52h-240l-44 52l59 51h239zM141 459l-61 -54h-49l40 285l58 51l45 -51zM92 110l-58 -51l-45 51l40 285h50l46 -54zM382 51l-58 -51h-240l-44 51l59 52h239zM450 110l-59 -51l-44 51l4 29l58 52l45 -52z" />
    <glyph glyph-name="D" unicode="D" horiz-adv-x="522" 
d="M141 459l-61 -54h-49l54 388l89 -103zM92 110l-117 -103l54 388h50l46 -54zM384 51l-59 -51h-344l118 103h240zM451 110l-59 -51l-44 51l32 231l61 54h50zM532 690l-40 -285h-49l-46 54l32 231l59 51zM482 748l-59 -51h-241l-88 103h343z" />
    <glyph glyph-name="E" unicode="E" horiz-adv-x="461" 
d="M480 748l-58 -51h-240l-44 52l59 51h239zM141 459l-61 -54h-49l40 285l58 51l45 -51zM92 110l-58 -51l-45 51l40 285h50l46 -54zM382 51l-58 -51h-240l-44 51l59 52h239zM373 400l-59 -52h-182l-44 52l58 51h183z" />
    <glyph glyph-name="F" unicode="F" horiz-adv-x="461" 
d="M480 748l-58 -51h-240l-44 52l59 51h239zM141 459l-61 -54h-49l40 285l58 51l45 -51zM373 400l-59 -52h-182l-44 52l58 51h183zM84 51l-59 -51l-44 51l48 344h50l46 -54z" />
    <glyph glyph-name="G" unicode="G" 
d="M480 748l-58 -51h-240l-44 52l59 51h239zM141 459l-61 -54h-49l40 285l58 51l45 -51zM92 110l-58 -51l-45 51l40 285h50l46 -54zM382 51l-58 -51h-240l-44 51l59 52h239zM450 110l-59 -51l-44 51l32 231l118 103zM490 451l-117 -103h-62l-44 52l59 51h164z" />
    <glyph glyph-name="H" unicode="H" 
d="M539 749l-48 -344h-49l-46 54l40 290l59 51zM141 459l-61 -54h-49l48 344l59 51l44 -51zM431 400l-58 -52h-241l-44 52l58 51h241zM441 51l-58 -51l-45 51l41 290l61 54h50zM84 51l-59 -51l-44 51l48 344h50l46 -54z" />
    <glyph glyph-name="I" unicode="I" horiz-adv-x="163" 
d="M141 459l-58 -52l-45 52l41 290l59 51l44 -51zM84 51l-59 -51l-44 51l41 290l58 52l45 -52z" />
    <glyph glyph-name="J" unicode="J" horiz-adv-x="522" 
d="M482 748l-59 -51h-62l-44 52l59 51h61zM532 690l-40 -285h-49l-46 54l32 231l59 51zM451 110l-59 -51l-44 51l32 231l61 54h50zM382 51l-58 -51h-240l-44 51l59 52h239zM92 110l-58 -51l-45 51l4 29l59 52l44 -52z" />
    <glyph glyph-name="K" unicode="K" horiz-adv-x="511" 
d="M523 701l-214 -296h-47l-36 43l255 352h56zM141 459l-61 -54h-49l48 344l59 51l44 -51zM252 400l-59 -52h-61l-44 52l58 51h62zM424 0h-56l-156 352l49 43h46l131 -296zM84 51l-59 -51l-44 51l48 344h50l46 -54z" />
    <glyph glyph-name="L" unicode="L" horiz-adv-x="461" 
d="M141 459l-61 -54h-49l48 344l59 51l44 -51zM92 110l-58 -51l-45 51l40 285h50l46 -54zM382 51l-58 -51h-240l-44 51l59 52h239z" />
    <glyph glyph-name="M" unicode="M" horiz-adv-x="878" 
d="M84 51l-59 -51l-44 51l48 344h50l46 -54zM141 459l-61 -54h-49l40 285l58 51l45 -51zM480 749l-58 -52h-240l-44 52l59 51h239zM838 749l-59 -52h-239l-45 52l59 51h239zM888 690l-40 -285h-49l-46 54l32 231l59 51zM799 51l-59 -51l-44 51l40 290l62 54h49zM499 459
l-59 -52l-44 52l32 231l59 51l44 -51zM441 51l-58 -51l-45 51l41 290l59 52l44 -52z" />
    <glyph glyph-name="N" unicode="N" 
d="M539 749l-48 -344h-49l-46 54l40 290l59 51zM385 459h-61l-149 173l16 117h34l173 -201zM141 459l-61 -54h-49l48 344l59 51l44 -51zM441 51l-58 -51l-45 51l41 290l61 54h50zM84 51l-59 -51l-44 51l48 344h50l46 -54z" />
    <glyph glyph-name="O" unicode="O" 
d="M141 459l-61 -54h-49l40 285l58 51l45 -51zM92 110l-58 -51l-45 51l40 285h50l46 -54zM531 690l-40 -285h-49l-46 54l32 231l59 51zM450 110l-59 -51l-44 51l32 231l61 54h50zM382 51l-58 -51h-240l-44 51l59 52h239zM480 749l-58 -52h-240l-44 52l59 51h239z" />
    <glyph glyph-name="P" unicode="P" horiz-adv-x="523" 
d="M501 459l-59 -52l-44 52l32 231l59 51l44 -51zM483 748l-59 -51h-241l-88 103h343zM142 459l-61 -54h-49l54 388l89 -103zM434 400l-59 -52h-241l-44 52l59 51h241zM84 51l-59 -51l-44 51l48 344h50l46 -54z" />
    <glyph glyph-name="Q" unicode="Q" 
d="M141 459l-61 -54h-49l40 285l58 51l45 -51zM92 110l-58 -51l-45 51l40 285h50l46 -54zM531 690l-40 -285h-49l-46 54l32 231l59 51zM450 110l-59 -51l-44 51l32 231l61 54h50zM382 51l-58 -51h-240l-44 51l59 52h239zM480 749l-58 -52h-240l-44 52l59 51h239zM335 114
l-59 115l18 129h20l43 -88z" />
    <glyph glyph-name="R" unicode="R" horiz-adv-x="523" 
d="M501 459l-59 -52l-44 52l32 231l59 51l44 -51zM483 748l-59 -51h-241l-88 103h343zM142 459l-61 -54h-49l54 388l89 -103zM434 400l-59 -52h-241l-44 52l59 51h241zM437 0h-96l-212 292l7 46h93l214 -295zM84 51l-59 -51l-44 51l48 344h50l46 -54z" />
    <glyph glyph-name="S" unicode="S" horiz-adv-x="522" 
d="M528 661l-59 -52l-44 52l4 29l59 51l44 -51zM482 749l-59 -52h-240l-44 52l59 51h239zM142 459l-58 -52l-45 52l33 231l59 51l44 -51zM433 400l-59 -52h-241l-44 52l59 51h240zM451 110l-59 -51l-44 51l32 231l59 52l44 -52zM382 51l-58 -51h-240l-44 51l59 52h239z
M92 110l-58 -51l-45 51l4 29l59 52l44 -52z" />
    <glyph glyph-name="T" unicode="T" horiz-adv-x="500" 
d="M519 749l-59 -52h-110l-50 58l-67 -58h-110l-44 52l59 51h337zM309 459l-58 -52l-45 52l33 231l58 51l45 -51zM252 51l-59 -51l-44 51l41 290l58 52l45 -52z" />
    <glyph glyph-name="U" unicode="U" 
d="M141 459l-61 -54h-49l48 344l59 51l44 -51zM92 110l-58 -51l-45 51l40 285h50l46 -54zM382 51l-58 -51h-240l-44 51l59 52h239zM450 110l-59 -51l-44 51l32 231l61 54h50zM539 749l-48 -344h-49l-46 54l40 290l59 51z" />
    <glyph glyph-name="V" unicode="V" horiz-adv-x="522" 
d="M541 749l-49 -344h-84l-14 34l44 310l58 51zM140 439l-23 -34h-85l48 344l59 51l44 -51zM484 346l-231 -346h-43l19 134l166 261h96zM199 0h-43l-134 346l7 49h96l93 -261z" />
    <glyph glyph-name="W" unicode="W" horiz-adv-x="878" 
d="M141 459l-61 -54h-49l48 344l59 51l44 -51zM92 110l-58 -51l-45 51l40 285h50l46 -54zM382 51l-58 -51h-240l-44 51l59 52h239zM740 51l-59 -51h-239l-45 51l59 52h240zM807 110l-59 -51l-44 51l32 231l62 54h49zM897 749l-49 -344h-49l-46 54l41 290l58 51zM450 110
l-59 -51l-44 51l32 231l59 52l44 -52zM499 459l-59 -52l-44 52l40 290l59 51l44 -51z" />
    <glyph glyph-name="X" unicode="X" horiz-adv-x="501" 
d="M514 701l-195 -296h-62l14 104l191 291h66zM246 405h-63l-111 296l14 99h66l109 -291zM415 0h-66l-108 291l14 104h63l111 -296zM230 291l-190 -291h-66l14 99l194 296h63z" />
    <glyph glyph-name="Y" unicode="Y" 
d="M499 459l-59 -52l-44 52l40 290l59 51l44 -51zM141 459l-58 -52l-45 52l41 290l59 51l44 -51zM450 110l-59 -51l-44 51l32 231l59 52l44 -52zM431 400l-58 -52h-241l-44 52l58 51h241zM382 51l-58 -51h-289l-44 51l59 52h288z" />
    <glyph glyph-name="Z" unicode="Z" horiz-adv-x="444" 
d="M463 748l-59 -51h-259l-45 52l59 51h260zM388 537l-107 -132h-53l15 104l137 177h29zM201 291l-137 -177h-29l20 149l108 132h53zM345 51l-59 -51h-261l-44 51l59 52h261z" />
    <glyph glyph-name="bracketleft" unicode="[" horiz-adv-x="305" 
d="M327 771l-83 -74h-62l-88 103h238zM141 459l-61 -54h-49l54 388l89 -103zM92 110l-117 -103l54 388h50l46 -54zM219 0h-238l118 103h61l63 -74z" />
    <glyph glyph-name="backslash" unicode="\" horiz-adv-x="501" 
d="M246 405h-53l-119 306l12 89h66l110 -281zM415 0h-66l-110 281l16 114h53l120 -306z" />
    <glyph glyph-name="bracketright" unicode="]" horiz-adv-x="305" 
d="M324 800l-117 -103h-62l-63 74l4 29h238zM276 405h-49l-46 54l32 231l118 103zM220 7l-88 103l32 231l61 54h50zM212 0h-238l4 29l84 74h61z" />
    <glyph glyph-name="underscore" unicode="_" horiz-adv-x="404" 
d="M374 51l-59 -51h-241l-44 51l59 52h240z" />
    <glyph glyph-name="a" unicode="a" horiz-adv-x="524" 
d="M84 51l-59 -51l-44 51l48 344h50l46 -54zM142 459l-61 -54h-50l39 283l61 53l44 -51zM483 748l-59 -51h-239l-45 52l59 51h239zM495 405h-51l-46 54l32 231l59 51l45 -52zM493 395l-48 -344l-59 -51l-44 51l41 290l61 54h49zM434 400l-59 -52h-241l-44 52l59 51h241z" />
    <glyph glyph-name="b" unicode="b" horiz-adv-x="522" 
d="M92 110l-117 -103l54 388h50l46 -54zM141 459l-61 -54h-49l54 388l89 -103zM482 748l-59 -51h-241l-88 103h343zM500 459l-59 -52l-44 52l32 231l59 51l44 -51zM451 110l-59 -51l-44 51l32 231l59 52l44 -52zM384 51l-59 -51h-344l118 103h240zM433 400l-59 -52h-241
l-44 52l59 51h240z" />
    <glyph glyph-name="c" unicode="c" 
d="M527 661l-59 -52l-44 52l4 29l59 51l44 -51zM480 749l-58 -52h-240l-44 52l59 51h239zM141 459l-61 -54h-49l40 285l58 51l45 -51zM92 110l-58 -51l-45 51l40 285h50l46 -54zM382 51l-58 -51h-240l-44 51l59 52h239zM450 110l-59 -51l-44 51l4 29l58 52l45 -52z" />
    <glyph glyph-name="d" unicode="d" horiz-adv-x="522" 
d="M141 459l-61 -54h-49l54 388l89 -103zM92 110l-117 -103l54 388h50l46 -54zM384 51l-59 -51h-344l118 103h240zM451 110l-59 -51l-44 51l32 231l61 54h50zM532 690l-40 -285h-49l-46 54l32 231l59 51zM482 748l-59 -51h-241l-88 103h343z" />
    <glyph glyph-name="e" unicode="e" horiz-adv-x="461" 
d="M480 748l-58 -51h-240l-44 52l59 51h239zM141 459l-61 -54h-49l40 285l58 51l45 -51zM92 110l-58 -51l-45 51l40 285h50l46 -54zM382 51l-58 -51h-240l-44 51l59 52h239zM373 400l-59 -52h-182l-44 52l58 51h183z" />
    <glyph glyph-name="f" unicode="f" horiz-adv-x="461" 
d="M480 748l-58 -51h-240l-44 52l59 51h239zM141 459l-61 -54h-49l40 285l58 51l45 -51zM373 400l-59 -52h-182l-44 52l58 51h183zM84 51l-59 -51l-44 51l48 344h50l46 -54z" />
    <glyph glyph-name="g" unicode="g" 
d="M480 748l-58 -51h-240l-44 52l59 51h239zM141 459l-61 -54h-49l40 285l58 51l45 -51zM92 110l-58 -51l-45 51l40 285h50l46 -54zM382 51l-58 -51h-240l-44 51l59 52h239zM450 110l-59 -51l-44 51l32 231l118 103zM490 451l-117 -103h-62l-44 52l59 51h164z" />
    <glyph glyph-name="h" unicode="h" 
d="M539 749l-48 -344h-49l-46 54l40 290l59 51zM141 459l-61 -54h-49l48 344l59 51l44 -51zM431 400l-58 -52h-241l-44 52l58 51h241zM441 51l-58 -51l-45 51l41 290l61 54h50zM84 51l-59 -51l-44 51l48 344h50l46 -54z" />
    <glyph glyph-name="i" unicode="i" horiz-adv-x="163" 
d="M141 459l-58 -52l-45 52l41 290l59 51l44 -51zM84 51l-59 -51l-44 51l41 290l58 52l45 -52z" />
    <glyph glyph-name="j" unicode="j" horiz-adv-x="522" 
d="M541 749l-49 -344h-49l-46 54l41 290l58 51zM451 110l-59 -51l-44 51l32 231l61 54h50zM382 51l-58 -51h-240l-44 51l59 52h239zM92 110l-58 -51l-45 51l4 29l59 52l44 -52z" />
    <glyph glyph-name="k" unicode="k" horiz-adv-x="511" 
d="M523 701l-214 -296h-47l-36 43l255 352h56zM141 459l-61 -54h-49l48 344l59 51l44 -51zM252 400l-59 -52h-61l-44 52l58 51h62zM424 0h-56l-156 352l49 43h46l131 -296zM84 51l-59 -51l-44 51l48 344h50l46 -54z" />
    <glyph glyph-name="l" unicode="l" horiz-adv-x="461" 
d="M141 459l-61 -54h-49l48 344l59 51l44 -51zM92 110l-58 -51l-45 51l40 285h50l46 -54zM382 51l-58 -51h-240l-44 51l59 52h239z" />
    <glyph glyph-name="m" unicode="m" 
d="M539 749l-48 -344h-49l-46 54l40 290l59 51zM393 518l-85 -113h-42l14 105l128 186h10zM255 405h-43l-53 113l25 178h10l76 -186zM141 459l-61 -54h-49l48 344l59 51l44 -51zM441 51l-58 -51l-45 51l41 290l61 54h50zM84 51l-59 -51l-44 51l48 344h50l46 -54z" />
    <glyph glyph-name="n" unicode="n" 
d="M539 749l-48 -344h-49l-46 54l40 290l59 51zM385 459h-61l-149 173l16 117h34l173 -201zM141 459l-61 -54h-49l48 344l59 51l44 -51zM441 51l-58 -51l-45 51l41 290l61 54h50zM84 51l-59 -51l-44 51l48 344h50l46 -54z" />
    <glyph glyph-name="o" unicode="o" 
d="M141 459l-61 -54h-49l40 285l58 51l45 -51zM92 110l-58 -51l-45 51l40 285h50l46 -54zM531 690l-40 -285h-49l-46 54l32 231l59 51zM450 110l-59 -51l-44 51l32 231l61 54h50zM382 51l-58 -51h-240l-44 51l59 52h239zM480 749l-58 -52h-240l-44 52l59 51h239z" />
    <glyph glyph-name="p" unicode="p" horiz-adv-x="523" 
d="M501 459l-59 -52l-44 52l32 231l59 51l44 -51zM483 748l-59 -51h-241l-88 103h343zM142 459l-61 -54h-49l54 388l89 -103zM434 400l-59 -52h-241l-44 52l59 51h241zM84 51l-59 -51l-44 51l48 344h50l46 -54z" />
    <glyph glyph-name="q" unicode="q" 
d="M141 459l-61 -54h-49l40 285l58 51l45 -51zM92 110l-58 -51l-45 51l40 285h50l46 -54zM531 690l-40 -285h-49l-46 54l32 231l59 51zM450 110l-59 -51l-44 51l32 231l61 54h50zM382 51l-58 -51h-240l-44 51l59 52h239zM480 749l-58 -52h-240l-44 52l59 51h239zM335 114
l-59 115l18 129h20l43 -88z" />
    <glyph glyph-name="r" unicode="r" horiz-adv-x="523" 
d="M501 459l-59 -52l-44 52l32 231l59 51l44 -51zM483 748l-59 -51h-241l-88 103h343zM142 459l-61 -54h-49l54 388l89 -103zM434 400l-59 -52h-241l-44 52l59 51h241zM437 0h-96l-212 292l7 46h93l214 -295zM84 51l-59 -51l-44 51l48 344h50l46 -54z" />
    <glyph glyph-name="s" unicode="s" horiz-adv-x="522" 
d="M528 661l-59 -52l-44 52l4 29l59 51l44 -51zM482 749l-59 -52h-240l-44 52l59 51h239zM142 459l-58 -52l-45 52l33 231l59 51l44 -51zM433 400l-59 -52h-241l-44 52l59 51h240zM451 110l-59 -51l-44 51l32 231l59 52l44 -52zM382 51l-58 -51h-240l-44 51l59 52h239z
M92 110l-58 -51l-45 51l4 29l59 52l44 -52z" />
    <glyph glyph-name="t" unicode="t" horiz-adv-x="500" 
d="M519 749l-59 -52h-110l-50 58l-67 -58h-110l-44 52l59 51h337zM309 459l-58 -52l-45 52l33 231l58 51l45 -51zM252 51l-59 -51l-44 51l41 290l58 52l45 -52z" />
    <glyph glyph-name="u" unicode="u" 
d="M141 459l-61 -54h-49l48 344l59 51l44 -51zM92 110l-58 -51l-45 51l40 285h50l46 -54zM382 51l-58 -51h-240l-44 51l59 52h239zM450 110l-59 -51l-44 51l32 231l61 54h50zM539 749l-48 -344h-49l-46 54l40 290l59 51z" />
    <glyph glyph-name="v" unicode="v" horiz-adv-x="522" 
d="M541 749l-49 -344h-84l-14 34l44 310l58 51zM140 439l-23 -34h-85l48 344l59 51l44 -51zM484 346l-231 -346h-43l19 134l166 261h96zM199 0h-43l-134 346l7 49h96l93 -261z" />
    <glyph glyph-name="w" unicode="w" 
d="M539 749l-48 -344h-49l-46 54l40 290l59 51zM141 459l-61 -54h-49l48 344l59 51l44 -51zM441 52l-58 -52l-45 52l41 289l61 54h50zM335 104h-10l-76 186l15 105h43l53 -113zM239 290l-128 -186h-10l25 178l85 113h43zM84 51l-59 -51l-44 51l48 344h50l46 -54z" />
    <glyph glyph-name="x" unicode="x" horiz-adv-x="501" 
d="M514 701l-195 -296h-62l14 104l191 291h66zM246 405h-63l-111 296l14 99h66l109 -291zM415 0h-66l-108 291l14 104h63l111 -296zM230 291l-190 -291h-66l14 99l194 296h63z" />
    <glyph glyph-name="y" unicode="y" horiz-adv-x="522" 
d="M538 731l-199 -326h-72l13 94l182 301h86zM256 405h-73l-106 326l9 69h86l97 -301zM263 51l-58 -51l-45 51l41 290l59 52l44 -52z" />
    <glyph glyph-name="z" unicode="z" horiz-adv-x="444" 
d="M463 748l-59 -51h-259l-45 52l59 51h260zM388 537l-107 -132h-53l15 104l137 177h29zM201 291l-137 -177h-29l20 149l108 132h53zM345 51l-59 -51h-261l-44 51l59 52h261z" />
    <glyph glyph-name="bar" unicode="|" horiz-adv-x="163" 
d="M141 459l-58 -52l-45 52l48 341l59 51l44 -51zM77 0l-59 -51l-44 51l48 341l58 52l45 -52z" />
    <glyph glyph-name="nonbreakingspace" unicode="&#xa0;" horiz-adv-x="525" 
 />
  </font>
</defs>
</svg>
